<?xml version="1.0" standalone="no"?>
<!DOCTYPE svg PUBLIC "-//W3C//DTD SVG 1.1//EN" "http://www.w3.org/Graphics/SVG/1.1/DTD/svg11.dtd"><svg t="1683510615796"
  class="icon" viewBox="0 0 1024 1024" version="1.1" xmlns="http://www.w3.org/2000/svg" p-id="6046"
  xmlns:xlink="http://www.w3.org/1999/xlink" width="200" height="200">
  <path
    d="M730.9568 483.6864a0.5376 0.5376 0 0 0-0.1536-0.256 92.4672 92.4672 0 0 0-17.92-20.096l-14.6176-12.3648-286.72-242.5088c-21.2992-18.048-49.5104-26.88-77.5936-26.5984l-184.8832 156.4672-14.6176 12.3904a92.4672 92.4672 0 0 0-17.92 20.096 0.5376 0.5376 0 0 0-0.1536 0.256 99.2512 99.2512 0 0 0-13.184 38.4A102.1952 102.1952 0 0 0 102.4 422.4v436.9152C102.4 911.8208 142.2592 954.88 190.9504 954.88H744.96V535.04a102.1952 102.1952 0 0 0-0.8192-12.928 99.2512 99.2512 0 0 0-13.184-38.4256z"
    fill="#ffa115" p-id="6047"></path>
  <path
    d="M920.7808 409.6a99.2512 99.2512 0 0 0-13.184-38.4 0.6912 0.6912 0 0 0-0.1536-0.256 92.4672 92.4672 0 0 0-17.92-20.096l-14.6176-12.3648-286.72-242.5088C567.296 78.08 539.648 69.12 512 69.12s-55.296 8.8832-76.2624 26.624l-286.72 242.5088-14.5664 12.4672a92.4672 92.4672 0 0 0-17.92 20.096 0.6912 0.6912 0 0 0-0.1536 0.256 99.2512 99.2512 0 0 0-13.184 38.4A102.1952 102.1952 0 0 0 102.4 422.4v436.9152C102.4 911.8208 142.2592 954.88 190.9504 954.88h642.0992c48.64 0 88.5504-42.9824 88.5504-95.488V422.4a102.1952 102.1952 0 0 0-0.8192-12.8zM440.32 872.96V595.0464h145.92V872.96z m399.36-13.568c0 9.0368-5.4528 13.3376-6.6304 13.568H668.16V589.9264a77.0304 77.0304 0 0 0-76.8-76.8h-156.16a77.0304 77.0304 0 0 0-76.8 76.8V872.96H190.9504c-1.1776-0.2304-6.6304-4.5312-6.6304-13.568V422.4a18.2528 18.2528 0 0 1 0.1792-2.56 17.92 17.92 0 0 1 1.4336-5.12 10.8288 10.8288 0 0 1 1.3312-1.28l14.592-12.3648 286.72-242.5088a41.2928 41.2928 0 0 1 46.72 0l286.72 242.5088 14.592 12.3648h0.128a13.1328 13.1328 0 0 1 1.3312 1.28 18.2272 18.2272 0 0 1 1.4336 5.12 20.1216 20.1216 0 0 1 0.1792 2.56z"
    fill="#333333" p-id="6048"></path>
</svg>