<?xml version="1.0" standalone="no"?>
<!DOCTYPE svg PUBLIC "-//W3C//DTD SVG 1.1//EN" "http://www.w3.org/Graphics/SVG/1.1/DTD/svg11.dtd"><svg t="1683507755782"
  class="icon" viewBox="0 0 1210 1024" version="1.1" xmlns="http://www.w3.org/2000/svg" p-id="2493"
  xmlns:xlink="http://www.w3.org/1999/xlink" width="236.328125" height="200">
  <path
    d="M605.090909 465.454545a93.090909 93.090909 0 1 1 0-186.181818 93.090909 93.090909 0 0 1 0 186.181818z m0 93.09091a186.181818 186.181818 0 1 0 0-372.363637 186.181818 186.181818 0 0 0 0 372.363637z"
    fill="#EE7C3D" p-id="2494"></path>
  <path
    d="M837.818182 791.272727H372.363636v-93.090909a232.727273 232.727273 0 1 1 465.454546 0v93.090909z m-372.363637-93.090909h279.272728a139.636364 139.636364 0 1 0-279.272728 0z"
    fill="#EE7C3D" p-id="2495"></path>
  <path
    d="M325.818182 93.090909a93.090909 93.090909 0 0 0-93.090909 93.090909v512h744.727272V186.181818a93.090909 93.090909 0 0 0-93.090909-93.090909H325.818182zM139.636364 698.181818V186.181818a186.181818 186.181818 0 0 1 186.181818-186.181818h558.545454a186.181818 186.181818 0 0 1 186.181819 186.181818v512h80.384c32.721455 0 59.252364 26.530909 59.252363 59.252364A266.565818 266.565818 0 0 1 943.616 1024H266.565818A266.565818 266.565818 0 0 1 0 757.434182C0 724.712727 26.530909 698.181818 59.252364 698.181818H139.636364z m930.909091 93.090909H96.349091c15.825455 79.592727 86.016 139.636364 170.216727 139.636364h677.050182c84.247273 0 154.437818-60.043636 170.170182-139.636364H1070.545455z"
    fill="#4E4E4E" p-id="2496"></path>
</svg>